<!--?xml version="1.0" standalone="no"?-->
              <svg id="sw-js-blob-svg" viewBox="0 0 100 100" xmlns="http://www.w3.org/2000/svg" version="1.1">
                    <defs> 
                        <linearGradient id="sw-gradient" x1="0" x2="1" y1="1" y2="0">
                            <stop id="stop1" stop-color="rgba(7, 89, 143, 1)" offset="0%"></stop>
                            <stop id="stop2" stop-color="rgba(6, 149, 202, 1)" offset="100%"></stop>
                        </linearGradient>
                    </defs>
                <path fill="url(#sw-gradient)" d="M6.1,-9.5C10.6,-6.7,18.7,-9.5,19.5,-8.6C20.3,-7.8,13.8,-3.4,13.9,2.6C14,8.6,20.8,16.2,21.3,22.2C21.9,28.1,16.3,32.4,10.7,32C5.1,31.5,-0.6,26.4,-8.4,25.5C-16.2,24.6,-26.3,28,-31,25.3C-35.8,22.6,-35.4,13.8,-34.6,6.2C-33.9,-1.5,-32.9,-8,-28.8,-11.5C-24.6,-15,-17.4,-15.4,-12.1,-17.9C-6.8,-20.3,-3.4,-24.7,-1.3,-22.7C0.8,-20.7,1.7,-12.3,6.1,-9.5Z" width="100%" height="100%" transform="translate(50 50)" stroke-width="0" style="transition: all 0.3s ease 0s;"></path>
              </svg>